<svg width="616" height="98" viewBox="0 0 616 98" fill="none" xmlns="http://www.w3.org/2000/svg">
<path d="M0.710228 96V2.90909H56.5284V12.9091H11.983V44.3636H52.3466V54.3636H11.983V96H0.710228ZM73.6307 96V26.1818H83.9943V36.7273H84.7216C85.9943 33.2727 88.2973 30.4697 91.6307 28.3182C94.964 26.1667 98.7216 25.0909 102.903 25.0909C103.691 25.0909 104.676 25.1061 105.858 25.1364C107.04 25.1667 107.934 25.2121 108.54 25.2727V36.1818C108.176 36.0909 107.343 35.9545 106.04 35.7727C104.767 35.5606 103.419 35.4545 101.994 35.4545C98.6004 35.4545 95.5701 36.1667 92.9034 37.5909C90.267 38.9848 88.1761 40.9242 86.6307 43.4091C85.1155 45.8636 84.358 48.6667 84.358 51.8182V96H73.6307ZM121.256 96V26.1818H131.983V96H121.256ZM126.71 14.5455C124.619 14.5455 122.816 13.8333 121.301 12.4091C119.816 10.9848 119.074 9.27273 119.074 7.27273C119.074 5.27273 119.816 3.56061 121.301 2.13636C122.816 0.71212 124.619 0 126.71 0C128.801 0 130.589 0.71212 132.074 2.13636C133.589 3.56061 134.347 5.27273 134.347 7.27273C134.347 9.27273 133.589 10.9848 132.074 12.4091C130.589 13.8333 128.801 14.5455 126.71 14.5455ZM180.903 97.4545C174.176 97.4545 168.373 95.9697 163.494 93C158.646 90 154.903 85.8182 152.267 80.4545C149.661 75.0606 148.358 68.7879 148.358 61.6364C148.358 54.4848 149.661 48.1818 152.267 42.7273C154.903 37.2424 158.57 32.9697 163.267 29.9091C167.994 26.8182 173.509 25.2727 179.812 25.2727C183.449 25.2727 187.04 25.8788 190.585 27.0909C194.131 28.303 197.358 30.2727 200.267 33C203.176 35.697 205.494 39.2727 207.222 43.7273C208.949 48.1818 209.812 53.6667 209.812 60.1818V64.7273H155.994V55.4545H198.903C198.903 51.5151 198.116 48 196.54 44.9091C194.994 41.8182 192.782 39.3788 189.903 37.5909C187.055 35.803 183.691 34.9091 179.812 34.9091C175.54 34.9091 171.843 35.9697 168.722 38.0909C165.631 40.1818 163.252 42.9091 161.585 46.2727C159.919 49.6364 159.085 53.2424 159.085 57.0909V63.2727C159.085 68.5455 159.994 73.0152 161.812 76.6818C163.661 80.3182 166.222 83.0909 169.494 85C172.767 86.8788 176.57 87.8182 180.903 87.8182C183.722 87.8182 186.267 87.4242 188.54 86.6364C190.843 85.8182 192.828 84.6061 194.494 83C196.161 81.3636 197.449 79.3333 198.358 76.9091L208.722 79.8182C207.631 83.3333 205.797 86.4242 203.222 89.0909C200.646 91.7273 197.464 93.7879 193.676 95.2727C189.888 96.7273 185.631 97.4545 180.903 97.4545ZM236.858 54V96H226.131V26.1818H236.494V37.0909H237.403C239.04 33.5455 241.525 30.697 244.858 28.5455C248.191 26.3636 252.494 25.2727 257.767 25.2727C262.494 25.2727 266.631 26.2424 270.176 28.1818C273.722 30.0909 276.479 33 278.449 36.9091C280.419 40.7879 281.403 45.697 281.403 51.6364V96H270.676V52.3636C270.676 46.8788 269.252 42.6061 266.403 39.5455C263.555 36.4545 259.646 34.9091 254.676 34.9091C251.252 34.9091 248.191 35.6515 245.494 37.1364C242.828 38.6212 240.722 40.7879 239.176 43.6364C237.631 46.4848 236.858 49.9394 236.858 54ZM327.369 97.4545C321.551 97.4545 316.415 95.9848 311.96 93.0455C307.506 90.0758 304.021 85.8939 301.506 80.5C298.991 75.0758 297.733 68.6667 297.733 61.2727C297.733 53.9394 298.991 47.5758 301.506 42.1818C304.021 36.7879 307.521 32.6212 312.006 29.6818C316.491 26.7424 321.672 25.2727 327.551 25.2727C332.097 25.2727 335.688 26.0303 338.324 27.5455C340.991 29.0303 343.021 30.7273 344.415 32.6364C345.839 34.5151 346.945 36.0606 347.733 37.2727H348.642V2.90909H359.369V96H349.006V85.2727H347.733C346.945 86.5455 345.824 88.1515 344.369 90.0909C342.915 92 340.839 93.7121 338.142 95.2273C335.445 96.7121 331.854 97.4545 327.369 97.4545ZM328.824 87.8182C333.127 87.8182 336.763 86.697 339.733 84.4545C342.703 82.1818 344.96 79.0455 346.506 75.0455C348.051 71.0152 348.824 66.3636 348.824 61.0909C348.824 55.8788 348.066 51.3182 346.551 47.4091C345.036 43.4697 342.794 40.4091 339.824 38.2273C336.854 36.0151 333.188 34.9091 328.824 34.9091C324.278 34.9091 320.491 36.0758 317.46 38.4091C314.46 40.7121 312.203 43.8485 310.688 47.8182C309.203 51.7576 308.46 56.1818 308.46 61.0909C308.46 66.0606 309.218 70.5758 310.733 74.6364C312.278 78.6667 314.551 81.8788 317.551 84.2727C320.581 86.6364 324.339 87.8182 328.824 87.8182ZM381.96 96V2.90909H393.233V86H436.506V96H381.96ZM452.506 96V26.1818H463.233V96H452.506ZM457.96 14.5455C455.869 14.5455 454.066 13.8333 452.551 12.4091C451.066 10.9848 450.324 9.27273 450.324 7.27273C450.324 5.27273 451.066 3.56061 452.551 2.13636C454.066 0.71212 455.869 0 457.96 0C460.051 0 461.839 0.71212 463.324 2.13636C464.839 3.56061 465.597 5.27273 465.597 7.27273C465.597 9.27273 464.839 10.9848 463.324 12.4091C461.839 13.8333 460.051 14.5455 457.96 14.5455ZM493.608 54V96H482.881V26.1818H493.244V37.0909H494.153C495.79 33.5455 498.275 30.697 501.608 28.5455C504.941 26.3636 509.244 25.2727 514.517 25.2727C519.244 25.2727 523.381 26.2424 526.926 28.1818C530.472 30.0909 533.229 33 535.199 36.9091C537.169 40.7879 538.153 45.697 538.153 51.6364V96H527.426V52.3636C527.426 46.8788 526.002 42.6061 523.153 39.5455C520.305 36.4545 516.396 34.9091 511.426 34.9091C508.002 34.9091 504.941 35.6515 502.244 37.1364C499.578 38.6212 497.472 40.7879 495.926 43.6364C494.381 46.4848 493.608 49.9394 493.608 54ZM567.756 70.5455L567.574 57.2727H569.756L600.301 26.1818H613.574L581.028 59.0909H580.119L567.756 70.5455ZM557.756 96V2.90909H568.483V96H557.756ZM602.119 96L574.847 61.4545L582.483 54L615.756 96H602.119Z" fill="#41B883"/>
</svg>
